ply
format ascii 1.0
element vertex 49
property float x
property float y
property float z
property uchar diffuse_red
property uchar diffuse_green
property uchar diffuse_blue
end_header
-2.78756 -0.0103441 -14.6878 0 255 0
-0.960138 -0.00141188 -14.0198 0 255 0
-2.96248 -0.0763731 -14.8544 0 255 0
-2.82529 0.0056919 -15.6108 0 255 0
-2.47327 -0.0190366 -14.1823 0 255 0
-1.61475 -0.0206337 -13.8812 0 255 0
-1.53388 0.000919635 -14.1982 0 255 0
-1.26616 -0.00536601 -13.7247 0 255 0
-1.16513 -0.0152519 -13.8426 0 255 0
-3.4609 0.0240616 -16.9215 0 255 0
-2.21284 0.00984189 -14.9133 0 255 0
-2.32892 -0.000698069 -14.7988 0 255 0
-4.07288 -0.0179914 -19.1182 0 255 0
-3.57297 -0.0361295 -16.7886 255 0 255
-2.44164 -0.0153721 -14.7414 255 0 255
-1.75483 0.000621717 -14.0895 0 255 0
-1.39817 -0.00124572 -13.9443 0 255 0
-1.97355 -0.0183456 -13.9787 0 255 0
-1.87621 -0.00284471 -14.1577 255 0 255
-1.04214 -0.0135523 -13.7483 0 255 0
-0.846341 -4.9302e-008 -13.9746 0 255 0
-0.741818 -0.00438925 -14.0592 255 0 255
-0.549898 0.00927555 -14.3642 0 255 0
-0.339186 0.0236538 -14.805 0 255 0
-0.43965 0.0192365 -14.6074 0 255 0
-0.117408 0.0055167 -14.7337 0 255 0
-0.241386 0.0114267 -14.5965 0 255 0
-0.0287562 0.0770624 -16.2265 0 255 0
0.0924117 -0.0127596 -14.5206 0 255 0
0.217764 0.00867399 -14.7932 0 255 0
-0.65986 0.0101675 -14.4965 0 255 0
0.438623 -0.00843027 -14.9169 0 255 0
0.550574 0.00284175 -15.523 0 255 0
0.318035 0.0117012 -15.1827 0 255 0
0.659959 0.0109328 -15.6716 0 255 0
0.774191 0.00164921 -15.5222 0 255 0
1.03111 -0.00543276 -16.4922 0 255 0
0.905595 1.8182e-008 -15.9471 0 255 0
1.15594 -0.00541522 -16.4425 0 255 0
1.30652 0.00654234 -17.4647 0 255 0
1.50302 0.00727253 -18.8087 0 255 0
1.54538 0.0112863 -17.3873 255 0 255
1.73171 -1.21863e-007 -18.6059 255 0 255
1.76845 -0.0958476 -14.8705 255 0 255
1.89447 -0.0851286 -15.1824 255 0 255
1.69845 -0.063798 -15.2515 0 255 0
2.02373 -0.0839386 -15.2544 255 0 255
2.16929 -0.0919202 -15.666 0 255 0
2.69067 -0.0442723 -20.2454 0 255 0
